# File created by Blade
# Date/Time:  Tue Apr 07 20:53:18 2015
#---------------------------------------------------------
:version 1.10
:name HOM
:units
  mass 1.0
  length 1.000000
  angle deg
:documentation
     Acclaim Skeleton File
:root
   axis xyz
   order TX TY TZ RX RY RZ
   position 0.000000 0.000000 0.000000
   orientation 0 0 0
:bonedata
   begin
      id 1
      name Spine_dum
      direction 0.000000 1.000000 0.000000
      length 4.885285
      axis 0.0 0.0 0.0 xyz
   end
   begin
      id 2
      name LeftUpLeg_dum
      direction 1.000000 0.000000 0.000000
      length 2.672193
      axis 0.0 0.0 0.0 xyz
   end
   begin
      id 3
      name RightUpLeg_dum
      direction -1.000000 0.000000 0.000000
      length 2.672193
      axis 0.0 0.0 0.0 xyz
   end
   begin
      id 4
      name Spine
      direction 0.000000 1.000000 0.000000
      length 0.000000
      axis 0.0 0.0 0.0 xyz
      dof rx ry rz
   end
   begin
      id 5
      name Spine_dum1
      direction 0.000000 1.000000 0.000000
      length 16.494159
      axis 0.0 0.0 0.0 xyz
   end
   begin
      id 6
      name Spine_dum2
      direction 0.000000 1.000000 0.000000
      length 10.663448
      axis 0.0 0.0 0.0 xyz
   end
   begin
      id 7
      name Spine_dum3
      direction 0.000000 1.000000 0.000000
      length 10.663448
      axis 0.0 0.0 0.0 xyz
   end
   begin
      id 8
      name Head
      direction 0.000000 1.000000 0.000000
      length 4.527550
      axis 0.0 0.0 0.0 xyz
      dof rx ry rz
   end
   begin
      id 9
      name LeftShoulder
      direction 1.000000 0.000000 0.000000
      length 7.531907
      axis 0.0 0.0 -90.0 xyz
      dof rx ry rz
   end
   begin
      id 10
      name LeftArm
      direction 1.000000 0.000000 0.000000
      length 10.229199
      axis 0.0 0.0 -90.0 xyz
      dof rx ry rz
   end
   begin
      id 11
      name LeftForeArm
      direction 1.000000 0.000000 0.000000
      length 8.673495
      axis 0.0 0.0 -90.0 xyz
      dof ry rz rx
   end
   begin
      id 12
      name LeftHand
      direction 0.000000 0.000000 0.000000
      length 0.000000
      axis 0.0 0.0 -90.0 xyz
      dof rx ry rz
   end
   begin
      id 13
      name LeftHand_dum1
      direction 0.000000 0.000000 0.000000
      length 0.000000
      axis 0.0 0.0 -90.0 xyz
   end
   begin
      id 14
      name LeftHand_dum2
      direction 1.000000 0.000000 0.000000
      length 3.937000
      axis 0.0 0.0 -90.0 xyz
   end
   begin
      id 15
      name LeftHandThumb1
      direction 0.000000 0.000000 1.000000
      length 3.937000
      axis 0.0 0.0 -90.0 xyz
      dof rx rz ry
   end
   begin
      id 16
      name RightShoulder
      direction -1.000000 0.000000 0.000000
      length 7.531907
      axis 0.0 0.0 90.0 xyz
      dof rx ry rz
   end
   begin
      id 17
      name RightArm
      direction -1.000000 0.000000 0.000000
      length 10.229199
      axis 0.0 0.0 90.0 xyz
      dof rx ry rz
   end
   begin
      id 18
      name RightForeArm
      direction -1.000000 0.000000 0.000000
      length 8.673495
      axis 0.0 0.0 90.0 xyz
      dof ry rz rx
   end
   begin
      id 19
      name RightHand
      direction 0.000000 0.000000 0.000000
      length 0.000000
      axis 0.0 0.0 90.0 xyz
      dof rx ry rz
   end
   begin
      id 20
      name RightHand_dum1
      direction 0.000000 0.000000 0.000000
      length 0.000000
      axis 0.0 0.0 90.0 xyz
   end
   begin
      id 21
      name RightHand_dum2
      direction -1.000000 0.000000 0.000000
      length 3.937000
      axis 0.0 0.0 90.0 xyz
   end
   begin
      id 22
      name RightHandThumb1
      direction 0.000000 0.000000 1.000000
      length 3.937000
      axis 0.0 0.0 90.0 xyz
      dof rx rz ry
   end
   begin
      id 23
      name LeftUpLeg
      direction 0.000000 -1.000000 0.000000
      length 16.263388
      axis 0.0 0.0 0.0 xyz
      dof rx ry rz
   end
   begin
      id 24
      name LeftLeg
      direction 0.000000 -1.000000 0.000000
      length 14.328163
      axis 0.0 0.0 0.0 xyz
      dof rx ry rz
   end
   begin
      id 25
      name LeftFoot
      direction 0.000000 -0.258819 0.965926
      length 5.031290
      axis 15.0 0.0 0.0 xyz
      dof rx ry rz
   end
   begin
      id 26
      name LeftToeBase
      direction 0.000000 0.000000 1.000000
      length 2.952750
      axis 0.0 0.0 0.0 xyz
      dof rx ry rz
   end
   begin
      id 27
      name RightUpLeg
      direction 0.000000 -1.000000 0.000000
      length 16.263388
      axis 0.0 0.0 0.0 xyz
      dof rx ry rz
   end
   begin
      id 28
      name RightLeg
      direction 0.000000 -1.000000 0.000000
      length 14.328163
      axis 0.0 0.0 0.0 xyz
      dof rx ry rz
   end
   begin
      id 29
      name RightFoot
      direction 0.000000 -0.258819 0.965926
      length 5.031290
      axis 15.0 0.0 0.0 xyz
      dof rx ry rz
   end
   begin
      id 30
      name RightToeBase
      direction 0.000000 0.000000 1.000000
      length 2.952750
      axis 0.0 0.0 0.0 xyz
      dof rx ry rz
   end
:hierarchy
   begin
      root Spine_dum LeftUpLeg_dum RightUpLeg_dum
      Spine_dum Spine
      LeftUpLeg_dum LeftUpLeg
      RightUpLeg_dum RightUpLeg
      Spine Spine_dum1 Spine_dum2 Spine_dum3
      Spine_dum1 Head
      Spine_dum2 LeftShoulder
      Spine_dum3 RightShoulder
      LeftShoulder LeftArm
      LeftArm LeftForeArm
      LeftForeArm LeftHand
      LeftHand LeftHand_dum1 LeftHand_dum2
      LeftHand_dum1 LeftHandThumb1
      RightShoulder RightArm
      RightArm RightForeArm
      RightForeArm RightHand
      RightHand RightHand_dum1 RightHand_dum2
      RightHand_dum1 RightHandThumb1
      LeftUpLeg LeftLeg
      LeftLeg LeftFoot
      LeftFoot LeftToeBase
      RightUpLeg RightLeg
      RightLeg RightFoot
      RightFoot RightToeBase
   end

# File created by Blade
# Date/Time:  Tue Apr 07 20:53:11 2015
# Frame Rate: 120.000 fps
#------------------------------------------------------
:FULLY-SPECIFIED
:DEGREES
272
root -26.749053 32.889084 5.207340 -9.984137 -78.805655 10.890274
Spine -6.875308 -8.518422 -6.310971
Head 29.283338 -7.319734 3.065920
LeftShoulder -13.892155 25.464902 41.550272
LeftArm 114.977329 -60.368621 -83.802957
LeftForeArm 5.752619 -0.000000 33.282994
LeftHand 15.217389 -0.000000 20.753608
LeftHandThumb1 -26.253704 0.000000 33.147579
RightShoulder -14.063936 26.124489 -50.959536
RightArm 46.773636 26.009650 37.975265
RightForeArm -6.341894 -0.000000 23.036496
RightHand 18.876977 0.000000 -31.144073
RightHandThumb1 -24.326973 -0.000000 -32.862282
LeftUpLeg 5.405435 -4.557942 -5.717906
LeftLeg 4.098688 -0.000000 -0.000000
LeftFoot -12.386481 9.015059 -13.750403
LeftToeBase -11.403237 -0.000000 0.000000
RightUpLeg -15.407174 -11.554762 4.746739
RightLeg -1.829575 -0.000000 0.000000
RightFoot 19.822287 -11.465909 4.456561
RightToeBase -7.505245 -0.000000 0.000000
273
root -26.886778 32.871026 5.197378 -9.072926 -78.824965 10.141961
Spine -7.228416 -8.520080 -6.085800
Head 29.191975 -7.281735 2.943416
LeftShoulder -13.997954 25.585879 41.635557
LeftArm 115.746790 -60.611570 -83.861013
LeftForeArm 6.197954 -0.000000 33.520494
LeftHand 15.344433 0.000000 20.709388
LeftHandThumb1 -26.253704 0.000000 33.147579
RightShoulder -14.332219 26.444144 -51.374115
RightArm 47.141090 26.054379 37.953010
RightForeArm -6.855857 -0.000000 23.556857
RightHand 19.103781 0.000000 -31.864650
RightHandThumb1 -24.326973 -0.000000 -32.862282
LeftUpLeg 5.240480 -4.847644 -5.592883
LeftLeg 4.655617 -0.000000 -0.000000
LeftFoot -13.008992 9.399471 -13.627702
LeftToeBase -11.398313 -0.000000 0.000000
RightUpLeg -14.919183 -11.276757 4.770023
RightLeg -2.584766 -0.000000 0.000000
RightFoot 19.422292 -11.422239 4.997240
RightToeBase -7.221340 -0.000000 0.000000
274
root -27.029928 32.853689 5.190674 -8.306066 -78.861460 9.447290
Spine -7.485131 -8.526402 -5.871283
Head 29.106136 -7.221434 2.830200
LeftShoulder -14.091630 25.600599 41.705376
LeftArm 116.455716 -60.867545 -83.893092
LeftForeArm 6.955139 -0.000000 33.746891
LeftHand 15.377228 -0.000000 20.847979
LeftHandThumb1 -26.253704 0.000000 33.147579
RightShoulder -14.585118 26.740381 -51.753347
RightArm 47.551132 26.112220 37.919097
RightForeArm -7.379019 0.000000 24.039339
RightHand 19.383740 -0.000000 -32.430163
RightHandThumb1 -24.326973 -0.000000 -32.862282
LeftUpLeg 5.180277 -5.135000 -5.493043
LeftLeg 5.216358 -0.000000 -0.000000
LeftFoot -13.616168 9.815293 -13.526156
LeftToeBase -11.353778 -0.000000 0.000000
RightUpLeg -14.369977 -11.029949 4.782170
RightLeg -3.251591 -0.000000 0.000000
RightFoot 18.875786 -11.390438 5.660732
RightToeBase -6.908423 -0.000000 0.000000
275
root -27.176250 32.834255 5.182471 -7.514061 -78.882433 8.691671
Spine -7.701613 -8.507204 -5.659579
Head 28.996924 -7.202427 2.709150
LeftShoulder -14.160118 25.624677 41.804919
LeftArm 117.175419 -61.106096 -83.983204
LeftForeArm 7.542906 -0.000000 34.026377
LeftHand 15.425755 -0.000000 21.184722
LeftHandThumb1 -26.253704 0.000000 33.147579
RightShoulder -14.913713 27.199614 -52.227050
RightArm 47.817359 26.044053 37.902350
RightForeArm -7.812315 -0.000000 24.569906
RightHand 19.758765 -0.000000 -32.976825
RightHandThumb1 -24.326973 -0.000000 -32.862282
LeftUpLeg 5.149899 -5.432087 -5.379967
LeftLeg 5.788255 -0.000000 -0.000000
LeftFoot -14.238925 10.191975 -13.444452
LeftToeBase -11.067408 -0.000000 0.000000
RightUpLeg -13.820395 -10.820701 4.808471
RightLeg -3.814840 -0.000000 0.000000
RightFoot 18.140282 -11.351380 6.389522
RightToeBase -6.281791 -0.000000 0.000000
276
root -27.321199 32.815602 5.171845 -6.599585 -78.909964 7.811366
Spine -7.909142 -8.474309 -5.415288
Head 28.896939 -7.163387 2.585889
LeftShoulder -14.226785 26.442628 41.567550
LeftArm 119.608394 -61.700758 -85.440561
LeftForeArm 8.000516 -0.000000 34.280155
LeftHand 15.548447 -0.000000 21.225054
LeftHandThumb1 -26.253704 0.000000 33.147579
RightShoulder -15.359779 27.913835 -52.919433
RightArm 47.888338 25.758701 38.017204
RightForeArm -8.474253 -0.000000 25.113825
RightHand 19.998949 0.000000 -33.640916
RightHandThumb1 -24.326973 -0.000000 -32.862282
LeftUpLeg 5.125267 -5.850616 -5.253892
LeftLeg 6.355173 -0.000000 -0.000000
LeftFoot -14.896960 10.622817 -13.467504
LeftToeBase -11.062323 -0.000000 0.000000
RightUpLeg -13.333738 -10.604059 4.870616
RightLeg -4.238959 -0.000000 0.000000
RightFoot 17.408241 -11.259096 6.994614
RightToeBase -5.861722 -0.000000 0.000000
